<svg id="Layer_1" data-name="Layer 1" xmlns="http://www.w3.org/2000/svg" viewBox="0 0 504.57 382.68"><defs><style>.cls-1{fill:#404041;}.cls-2{fill:#0080c7;}.cls-3{fill:#00a1e0;}.cls-4{fill:#58595b;}</style></defs><path class="cls-1" d="M402.79,355l-2,3.87a9.47,9.47,0,0,0-2.62-1.51,8.07,8.07,0,0,0-3-.75,7.83,7.83,0,0,0-6.3,2.71,10.78,10.78,0,0,0-2.31,7.25,10.14,10.14,0,0,0,2.26,6.92,7.78,7.78,0,0,0,6.16,2.59,6.33,6.33,0,0,0,4.24-1.41v-5.32h-3.76v-4.11H404v12.13a12.2,12.2,0,0,1-4.42,2.19,19.46,19.46,0,0,1-5.39.78,11.8,11.8,0,0,1-9.24-3.81q-3.4-3.83-3.41-10.09a14.18,14.18,0,0,1,3.72-10.18,13.14,13.14,0,0,1,10-3.92A11.31,11.31,0,0,1,402.79,355Z"/><path class="cls-1" d="M424.8,379.86l-7.23-11.18c-.73,0-1.74-.06-3.05-.13v11.31h-5V352.78c.27,0,1.31,0,3.12-.14s3.28-.13,4.39-.13q10.31,0,10.31,8a7.39,7.39,0,0,1-1.42,4.38,7.69,7.69,0,0,1-3.59,2.79l8,12.2ZM414.52,357v7.52c.89.08,1.57.12,2,.12a8.71,8.71,0,0,0,4.41-.86c.93-.56,1.4-1.67,1.4-3.3a2.89,2.89,0,0,0-1.5-2.8,10.55,10.55,0,0,0-4.71-.79A13.39,13.39,0,0,0,414.52,357Z"/><path class="cls-1" d="M431.17,366.09a15.32,15.32,0,0,1,3.17-9.79,10.28,10.28,0,0,1,8.48-4q5.83,0,8.92,3.62t3.09,10.17q0,6.54-3.22,10.39t-9.16,3.84a9.89,9.89,0,0,1-8.37-3.8Q431.17,372.71,431.17,366.09Zm5,0a14.08,14.08,0,0,0,1.61,7.36,5.17,5.17,0,0,0,4.68,2.61,6.45,6.45,0,0,0,5.5-2.56q1.89-2.55,1.89-7.41,0-9.51-7-9.52a5.58,5.58,0,0,0-4.94,2.58A12.31,12.31,0,0,0,436.16,366.09Z"/><path class="cls-1" d="M458.89,352.78h4.81v18.36a4.65,4.65,0,0,0,5,4.92,5.74,5.74,0,0,0,4.06-1.35,4.72,4.72,0,0,0,1.45-3.66V352.78H479v18.64a8.13,8.13,0,0,1-2.8,6.54,11.2,11.2,0,0,1-7.48,2.36c-3.14,0-5.57-.76-7.28-2.31a8.46,8.46,0,0,1-2.56-6.61Z"/><path class="cls-1" d="M489.17,369.9v10h-4.81V352.8c3.21-.13,5.08-.2,5.62-.2,4.28,0,7.4.65,9.38,2a6.84,6.84,0,0,1,3,6.14q0,9.32-11,9.32C490.81,370,490.08,370,489.17,369.9Zm0-12.94v8.67a18.15,18.15,0,0,0,1.92.13,8.33,8.33,0,0,0,4.81-1.1,4.12,4.12,0,0,0,1.51-3.58q0-4.21-6.78-4.21A11.45,11.45,0,0,0,489.17,357Z"/><path class="cls-1" d="M7.82,341.34V295.4H.56V284.52H21.25v56.82Zm6.85-78.84a7.41,7.41,0,0,1,5.44,2.26,7.69,7.69,0,0,1,0,10.87,7.41,7.41,0,0,1-5.44,2.26,7.39,7.39,0,0,1-5.44-2.26,7.69,7.69,0,0,1,0-10.87A7.39,7.39,0,0,1,14.67,262.5Z"/><path class="cls-2" d="M70.53,341.34V308.5q0-7.26-2.79-10.61t-9.1-3.34a14.17,14.17,0,0,0-6.23,1.64,14.43,14.43,0,0,0-5.18,4.09v41.06H34V284.52h9.55L46,289.83q5.41-6.37,16-6.37,10.14,0,16,6.07t5.86,17v34.85Z"/><path class="cls-2" d="M132,341.34V308.5q0-7.26-2.78-10.61t-9.1-3.34a14.18,14.18,0,0,0-6.24,1.64,14.39,14.39,0,0,0-5.17,4.09v41.06H95.4V284.52H105l2.44,5.31q5.42-6.37,16-6.37,10.13,0,16,6.07t5.87,17v34.85Z"/><path class="cls-1" d="M153.11,312.8q0-13,7.51-21.17t19.82-8.17q12.94,0,20.1,7.85t7.17,21.49q0,13.57-7.3,21.59t-20,8q-13,0-20.14-8.09T153.11,312.8Zm13.8,0q0,18.78,13.53,18.78a11.65,11.65,0,0,0,9.84-4.88q3.63-4.87,3.63-13.9,0-18.51-13.47-18.52a11.71,11.71,0,0,0-9.87,4.88Q166.91,304.05,166.91,312.8Z"/><path class="cls-1" d="M239.16,342.4h-4.78L208.7,284.52h14.54l13.58,34.7,14.59-34.7h14.06Z"/><path class="cls-1" d="M301.81,335.67a12.84,12.84,0,0,1-6.29,4.85,23.86,23.86,0,0,1-9.36,1.88q-9.18,0-14.44-4.58t-5.25-13q0-9.87,7.4-15.44t21-5.57a22.82,22.82,0,0,1,5.52.8q0-10-12.68-10A28.2,28.2,0,0,0,275.22,297l-2.86-10.29a37.3,37.3,0,0,1,16.29-3.29q13,0,19,5.91t6.05,22.42v12.15q0,11.35,4.57,14.27a7.16,7.16,0,0,1-3.66,3.53,14.89,14.89,0,0,1-4.62.66,7.34,7.34,0,0,1-5.15-2.12A10.78,10.78,0,0,1,301.81,335.67Zm-1.28-21.07a28.13,28.13,0,0,0-5.09-.69q-15.7,0-15.71,10.3,0,7.64,8.87,7.64,11.92,0,11.93-11.94Z"/><path class="cls-1" d="M327.37,295.19h-6.58V284.52h6.58V273l13.26-4.88v16.45h15.6v10.67h-15.6v24.88q0,6.1,1.91,8.62c1.28,1.68,3.5,2.52,6.69,2.52a16.48,16.48,0,0,0,8.91-2.6v12.2q-4.62,1.59-13.16,1.59t-13.05-4.8q-4.56-4.8-4.56-13.66Z"/><path class="cls-1" d="M369.27,341.34V295.4H362V284.52h20.69v56.82Zm6.85-78.84a7.72,7.72,0,1,1-5.44,2.26A7.37,7.37,0,0,1,376.12,262.5Z"/><path class="cls-1" d="M391.7,312.8q0-13,7.51-21.17T419,283.46q12.95,0,20.11,7.85t7.16,21.49q0,13.57-7.3,21.59t-20,8q-12.94,0-20.14-8.09T391.7,312.8Zm13.8,0q0,18.78,13.53,18.78a11.63,11.63,0,0,0,9.84-4.88q3.63-4.87,3.63-13.9,0-18.51-13.47-18.52a11.71,11.71,0,0,0-9.87,4.88Q405.5,304.05,405.5,312.8Z"/><path class="cls-1" d="M490.75,341.34V308.5q0-7.26-2.79-10.61t-9.1-3.34a15.94,15.94,0,0,0-11.4,5.73v41.06H454.19V284.52h9.55l2.44,5.31q5.42-6.37,16-6.37,10.14,0,16,6.07t5.86,17v34.85Z"/><path class="cls-2" d="M330,82.67c.28,1.82-1.26,3.41-3.41,3.51L288,93.12c-2.32.09-4.45-1.33-4.76-3.26l-7.4-46.49c-.37-2.11,1.35-3.84,3.78-3.81l41,5.86a4.47,4.47,0,0,1,4.44,3.6Z"/><path class="cls-2" d="M274.81,87.05c.68,3.4-2.18,6.34-6.43,6.56L189.7,107.54c-4.9.28-9.76-2.42-10.78-6.09L153,7.76c-1.29-4.5,2.27-8,7.88-7.74l90.78,15.06c4.61.19,8.85,3.53,9.58,7.43Z"/><path class="cls-3" d="M377,158.72a2.36,2.36,0,0,1-2.27,2.37l-24.8,6.26A2.43,2.43,0,0,1,347,165.6L343.52,138a2.41,2.41,0,0,1,2.42-2.49l25.6,1a2.42,2.42,0,0,1,2.76,1.91Z"/><path class="cls-3" d="M348.06,86.2a2.39,2.39,0,0,1-2.44,2.52l-26.86,5a2.92,2.92,0,0,1-3.17-2.26l-4-32.33a2.48,2.48,0,0,1,2.63-2.66L342,60a3,3,0,0,1,3,2.48Z"/><path class="cls-3" d="M350.85,123.71a2.38,2.38,0,0,1-2.35,2.43l-25.67,5.72a2.59,2.59,0,0,1-3-2l-3.72-29.62a2.44,2.44,0,0,1,2.54-2.57l26.5,2.09A2.66,2.66,0,0,1,348,102Z"/><path class="cls-2" d="M346.37,202.57c.18,1.29-1.08,2.6-2.78,2.91l-30.7,9.23c-1.81.33-3.44-.48-3.66-1.81l-4.85-32.14c-.25-1.43,1.13-2.84,3-3.11l32-.61c1.75-.24,3.28.69,3.45,2.05Z"/><path class="cls-2" d="M326.84,163.53a1.88,1.88,0,0,1-1.82,1.91l-20.29,5.19a2,2,0,0,1-2.42-1.35L299,147.64c-.15-1,.73-1.86,1.94-2l20.89.41a2,2,0,0,1,2.3,1.47Z"/><path class="cls-2" d="M281.2,163.3c.42,1.94-1.39,3.79-4,4.15l-47.15,11.63c-2.84.37-5.57-.94-6.09-3L211.7,126.6c-.59-2.27,1.48-4.35,4.51-4.55l51.38,2.21c2.78-.17,5.26,1.38,5.67,3.46Z"/><path class="cls-3" d="M313,116.87c.34,2.13-1.49,4.08-4.15,4.29l-48.1,10.09c-2.9.25-5.64-1.34-6.1-3.6l-11-55.29c-.53-2.52,1.6-4.7,4.72-4.74l52.14,5.54c2.8-.06,5.26,1.79,5.6,4.13Z"/><path class="cls-3" d="M238,109.08c.7,2.88-1.82,5.48-5.65,5.78L162,128.2c-4.37.35-8.66-1.86-9.66-4.95L127.84,45.42c-1.22-3.67,1.82-6.74,6.69-6.67l80.54,9.93c4.13,0,8,2.69,8.81,6Z"/><path class="cls-3" d="M275.66,211.15c.63,2.74-2,5.55-6,6.28l-73.4,21.36c-4.6.84-9-.79-10-3.71l-23.33-73.9c-1.19-3.51,2.13-6.86,7.24-7.37l83.88.73c4.33-.48,8.26,1.74,8.95,4.9Z"/><path class="cls-2" d="M231.3,241.15c.53,1.72-1.25,3.56-4,4.1L179,260c-2.93.59-5.82-.36-6.42-2.15l-15-43.68c-.73-2,1.29-4.06,4.44-4.52L215.27,207c2.88-.43,5.55.77,6.09,2.62Z"/><path class="cls-4" d="M8.16,365.33h3.58a5.87,5.87,0,0,1,3.6.95A3.23,3.23,0,0,1,16.6,369a3.6,3.6,0,0,1-.7,2.26,4.38,4.38,0,0,1-2.12,1.35,3.9,3.9,0,0,1,.73.53,4,4,0,0,1,.59.7l4.06,6.21H17.82l-2.35-3.62c-.46-.71-.86-1.29-1.2-1.75a11.21,11.21,0,0,0-.8-1,2.22,2.22,0,0,0-1-.55,8.09,8.09,0,0,0-1.89-.17H9.34v7.08H8.16Zm1.18,1V372h.9c1.13,0,1.91,0,2.34-.08a3.82,3.82,0,0,0,1.1-.29,2.58,2.58,0,0,0,1.21-1A2.89,2.89,0,0,0,15.3,369a2.37,2.37,0,0,0-.91-2,4.16,4.16,0,0,0-2.59-.7Z"/><path class="cls-4" d="M25,380.06V365.33h8v.95h-6.8v5.84h6.58v.95H26.17v6h7v1Z"/><path class="cls-4" d="M47.31,367.42a7.69,7.69,0,0,0-1.74-.91,4.79,4.79,0,0,0-1.64-.3,3.09,3.09,0,0,0-2.19.79,2.55,2.55,0,0,0-.85,2,2.3,2.3,0,0,0,.54,1.58,7.11,7.11,0,0,0,2.36,1.38l.32.13a7.74,7.74,0,0,1,2.73,1.6,3.74,3.74,0,0,1,.72,1.18,4.09,4.09,0,0,1,.24,1.41,3.74,3.74,0,0,1-1.22,2.89,4.38,4.38,0,0,1-3.13,1.13,6,6,0,0,1-1.9-.32,8.6,8.6,0,0,1-1.9-1v-1.44a8.72,8.72,0,0,0,2,1.21,4.66,4.66,0,0,0,1.8.4,3.19,3.19,0,0,0,2.29-.8,2.79,2.79,0,0,0,.84-2.14,2.36,2.36,0,0,0-.57-1.64,8,8,0,0,0-2.62-1.49,7.88,7.88,0,0,1-2.9-1.77A3.31,3.31,0,0,1,39.7,369a3.62,3.62,0,0,1,1.18-2.8A4.37,4.37,0,0,1,44,365.14a6.38,6.38,0,0,1,1.69.23,7.24,7.24,0,0,1,1.65.74Z"/><path class="cls-4" d="M55,380.06V365.33h8v.95H56.17v5.84h6.59v.95H56.17v6h7v1Z"/><path class="cls-4" d="M68.09,380.06l6.43-14.86H75l6.43,14.86H80.17L78,374.93H71.51l-2.16,5.13Zm3.84-6.13h5.65l-2.82-6.69Z"/><path class="cls-4" d="M87.33,365.33h3.58a5.87,5.87,0,0,1,3.6.95A3.23,3.23,0,0,1,95.77,369a3.6,3.6,0,0,1-.7,2.26A4.38,4.38,0,0,1,93,372.62a3.9,3.9,0,0,1,.73.53,4,4,0,0,1,.59.7l4.06,6.21H97l-2.35-3.62c-.46-.71-.86-1.29-1.2-1.75a11.21,11.21,0,0,0-.8-1,2.22,2.22,0,0,0-1-.55,8.09,8.09,0,0,0-1.89-.17H88.51v7.08H87.33Zm1.18,1V372h.91c1.12,0,1.9,0,2.33-.08a3.82,3.82,0,0,0,1.1-.29,2.6,2.6,0,0,0,1.22-1,2.89,2.89,0,0,0,.4-1.59,2.37,2.37,0,0,0-.91-2,4.16,4.16,0,0,0-2.59-.7Z"/><path class="cls-4" d="M116.41,379a12.62,12.62,0,0,1-2.61,1,9.7,9.7,0,0,1-2.54.34,8.68,8.68,0,0,1-2.42-.33,8.13,8.13,0,0,1-2.14-1,7.23,7.23,0,0,1-2.51-2.73,7.58,7.58,0,0,1-.9-3.64,7.38,7.38,0,0,1,.59-2.88,7.25,7.25,0,0,1,1.68-2.44,7.77,7.77,0,0,1,2.58-1.68,8.48,8.48,0,0,1,3.12-.57,9.64,9.64,0,0,1,2.49.35,14.08,14.08,0,0,1,2.66,1v1.23a14.73,14.73,0,0,0-2.76-1.17,8.3,8.3,0,0,0-2.44-.38,6.86,6.86,0,0,0-3.74,1.09,6.54,6.54,0,0,0-2.88,5.47,6.6,6.6,0,0,0,.49,2.51,6.51,6.51,0,0,0,1.38,2.14,6.11,6.11,0,0,0,2.13,1.43,6.9,6.9,0,0,0,2.62.49,8.22,8.22,0,0,0,2.42-.38,15.45,15.45,0,0,0,2.78-1.17Z"/><path class="cls-4" d="M123.55,380.06V365.33h1.18v6.81h9.8v-6.81h1.19v14.73h-1.19v-6.88h-9.8v6.88Z"/><path class="cls-4" d="M164.08,380.06l-2.2-2.3a6.71,6.71,0,0,1-2.24,1.86,6.14,6.14,0,0,1-2.76.61,4,4,0,0,1-2.84-1,3.38,3.38,0,0,1-1.09-2.6,3.9,3.9,0,0,1,1-2.51,7.33,7.33,0,0,1,2.69-2,6.62,6.62,0,0,1-1.33-1.71,3.74,3.74,0,0,1-.44-1.73,2.9,2.9,0,0,1,1-2.24,3.52,3.52,0,0,1,2.46-.89,3.37,3.37,0,0,1,2.39.86,2.91,2.91,0,0,1,.93,2.23,3.37,3.37,0,0,1-.76,2.13,6.38,6.38,0,0,1-2.3,1.7l3.26,3.45a7.64,7.64,0,0,0,.88-1.46,12.56,12.56,0,0,0,.66-1.86h1.22a10.85,10.85,0,0,1-.77,2.23,10,10,0,0,1-1.21,1.92l3.07,3.27Zm-3-3.17L157.41,373a6.54,6.54,0,0,0-2.37,1.55,2.89,2.89,0,0,0-.79,2,2.42,2.42,0,0,0,.8,1.85,2.7,2.7,0,0,0,1.95.76,4.41,4.41,0,0,0,2.17-.58A6.28,6.28,0,0,0,161.06,376.89Zm-3.3-5.16a6.1,6.1,0,0,0,2-1.38,2.38,2.38,0,0,0,.66-1.63,2,2,0,0,0-.63-1.53,2.37,2.37,0,0,0-1.68-.59,2.15,2.15,0,0,0-1.55.6,1.94,1.94,0,0,0-.63,1.48,2.93,2.93,0,0,0,.44,1.48A6.69,6.69,0,0,0,157.76,371.73Z"/><path class="cls-4" d="M187.49,365.33a10.87,10.87,0,0,1,2.87.32,6.35,6.35,0,0,1,2.13,1,7.05,7.05,0,0,1,2.16,2.62,7.82,7.82,0,0,1,0,6.81,6.94,6.94,0,0,1-2.16,2.61,6.41,6.41,0,0,1-2.15,1,11.31,11.31,0,0,1-2.85.32h-5.11V365.33Zm-.3,1.06h-3.56V379h3.56a11.33,11.33,0,0,0,2.5-.24,5.4,5.4,0,0,0,1.81-.76,5.59,5.59,0,0,0,1.93-2.23,7.17,7.17,0,0,0,0-6.18,5.56,5.56,0,0,0-1.93-2.24,5.39,5.39,0,0,0-1.81-.75A11.33,11.33,0,0,0,187.19,366.39Z"/><path class="cls-4" d="M202.89,380.06V365.33h8v.95h-6.81v5.84h6.58v.95h-6.58v6h7v1Z"/><path class="cls-4" d="M216.07,365.33h1.3l5,12.36,5.09-12.36h1.25l-6.23,15h-.19Z"/><path class="cls-4" d="M234.75,380.06V365.33h8v.95h-6.81v5.84h6.58v.95h-6.58v6h7v1Z"/><path class="cls-4" d="M250.2,380.06V365.33h1.23v13.74h6.94v1Z"/><path class="cls-4" d="M263.05,372.64a7.13,7.13,0,0,1,.59-2.87,7.46,7.46,0,0,1,1.67-2.45,7.62,7.62,0,0,1,2.52-1.66,8.13,8.13,0,0,1,5.93,0,7.87,7.87,0,0,1,4.19,4.12,7.31,7.31,0,0,1,.58,2.91,7.64,7.64,0,0,1-.33,2.24,6.9,6.9,0,0,1-1,2,7.54,7.54,0,0,1-2.77,2.5,7.83,7.83,0,0,1-3.65.87,8,8,0,0,1-3-.57,7.66,7.66,0,0,1-4.17-4.15A7.62,7.62,0,0,1,263.05,372.64Zm1.29.05a6.71,6.71,0,0,0,1.88,4.65,6.3,6.3,0,0,0,2.09,1.42,6.46,6.46,0,0,0,2.48.5,6.29,6.29,0,0,0,4.57-1.92,6.42,6.42,0,0,0,1.4-2.12,6.77,6.77,0,0,0,.48-2.53,6.63,6.63,0,0,0-.48-2.51,6.38,6.38,0,0,0-1.4-2.11,6.56,6.56,0,0,0-2.1-1.44,6.38,6.38,0,0,0-2.47-.5,6.15,6.15,0,0,0-2.46.5,6.5,6.5,0,0,0-2.11,1.44,6.07,6.07,0,0,0-1.39,2.1A6.5,6.5,0,0,0,264.34,372.69Z"/><path class="cls-4" d="M285.84,365.33h3.59a5.58,5.58,0,0,1,3.62,1,3.57,3.57,0,0,1,1.23,2.95,3.68,3.68,0,0,1-1.18,2.86,4.55,4.55,0,0,1-3.16,1.07H287v6.85h-1.18Zm1.18,1v5.86h2.25a4.5,4.5,0,0,0,2.81-.72,2.71,2.71,0,0,0,.91-2.25,2.68,2.68,0,0,0-.89-2.16,4,4,0,0,0-2.61-.73Z"/><path class="cls-4" d="M301.42,380.06V365.33h1.23l5.5,6.79,5.47-6.79h1.26v14.73h-1.21v-13l-5.52,6.86-5.55-6.86v13Z"/><path class="cls-4" d="M323.08,380.06V365.33h8v.95h-6.8v5.84h6.58v.95h-6.58v6h7v1Z"/><path class="cls-4" d="M338.46,380.06V365.33h1.23l10.79,12.86V365.33h1.18v14.73h-1.1l-10.92-13v13Z"/><path class="cls-4" d="M363.77,380.06V366.39h-5.49v-1.06h12.24v1.06H365v13.67Z"/></svg>